{
	"asset":{
		"generator":"Khronos glTF Blender I/O v4.2.70",
		"version":"2.0"
	},
	"scene":0,
	"scenes":[
		{
			"name":"Scene",
			"nodes":[
				0,
				1,
				2
			]
		}
	],
	"nodes":[
		{
			"mesh":0,
			"name":"Shark",
			"translation":[
				0.11087492108345032,
				-0.3410452604293823,
				0
			]
		},
		{
			"mesh":1,
			"name":"Shell",
			"rotation":[
				0.1343338042497635,
				-0.005114377476274967,
				-0.10245738178491592,
				0.9856119751930237
			],
			"scale":[
				2.2956929206848145,
				2.2956929206848145,
				2.2956931591033936
			],
			"translation":[
				-6.260814666748047,
				0.35383933782577515,
				6.031306743621826
			]
		},
		{
			"mesh":2,
			"name":"Barrel",
			"rotation":[
				0.2612098455429077,
				-0.35879629850387573,
				-0.2736828923225403,
				0.8533067107200623
			],
			"scale":[
				2.0478804111480713,
				2.0478804111480713,
				2.047880172729492
			],
			"translation":[
				9.263808250427246,
				-0.800653338432312,
				-2.1035759449005127
			]
		}
	],
	"materials":[
		{
			"doubleSided":true,
			"name":"Material",
			"pbrMetallicRoughness":{
				"baseColorTexture":{
					"index":0
				},
				"metallicFactor":0,
				"roughnessFactor":0.5
			}
		},
		{
			"doubleSided":true,
			"name":"lambis_shell",
			"normalTexture":{
				"index":1
			},
			"pbrMetallicRoughness":{
				"baseColorTexture":{
					"index":2
				},
				"metallicRoughnessTexture":{
					"index":3
				}
			}
		},
		{
			"doubleSided":true,
			"name":"barrel_stove",
			"normalTexture":{
				"index":4
			},
			"pbrMetallicRoughness":{
				"baseColorTexture":{
					"index":5
				},
				"metallicRoughnessTexture":{
					"index":6
				}
			}
		}
	],
	"meshes":[
		{
			"name":"Mesh",
			"primitives":[
				{
					"attributes":{
						"POSITION":0,
						"NORMAL":1,
						"TEXCOORD_0":2
					},
					"indices":3,
					"material":0
				}
			]
		},
		{
			"name":"mesh",
			"primitives":[
				{
					"attributes":{
						"POSITION":4,
						"NORMAL":5,
						"TEXCOORD_0":6
					},
					"indices":7,
					"material":1
				}
			]
		},
		{
			"name":"Cylinder.007",
			"primitives":[
				{
					"attributes":{
						"POSITION":8,
						"NORMAL":9,
						"TEXCOORD_0":10
					},
					"indices":11,
					"material":2
				}
			]
		}
	],
	"textures":[
		{
			"sampler":0,
			"source":0
		},
		{
			"sampler":0,
			"source":1
		},
		{
			"sampler":0,
			"source":2
		},
		{
			"sampler":0,
			"source":3
		},
		{
			"sampler":0,
			"source":4
		},
		{
			"sampler":0,
			"source":5
		},
		{
			"sampler":0,
			"source":6
		}
	],
	"images":[
		{
			"mimeType":"image/jpeg",
			"name":"sharkTextu4",
			"uri":"sharkTextu4.jpg"
		},
		{
			"mimeType":"image/jpeg",
			"name":"lambis_shell_nor_gl_1k",
			"uri":"lambis_shell_nor_gl_1k.jpg"
		},
		{
			"mimeType":"image/jpeg",
			"name":"lambis_shell_diff_1k",
			"uri":"lambis_shell_diff_1k.jpg"
		},
		{
			"mimeType":"image/jpeg",
			"name":"lambis_shell_arm_1k",
			"uri":"lambis_shell_arm_1k.jpg"
		},
		{
			"mimeType":"image/jpeg",
			"name":"barrel_stove_nor_gl_1k",
			"uri":"barrel_stove_nor_gl_1k.jpg"
		},
		{
			"mimeType":"image/jpeg",
			"name":"barrel_stove_diff_1k",
			"uri":"barrel_stove_diff_1k.jpg"
		},
		{
			"mimeType":"image/jpeg",
			"name":"barrel_stove_arm_1k",
			"uri":"barrel_stove_arm_1k.jpg"
		}
	],
	"accessors":[
		{
			"bufferView":0,
			"componentType":5126,
			"count":3611,
			"max":[
				1.4362832307815552,
				1.5900287628173828,
				2.5029120445251465
			],
			"min":[
				-1.436282992362976,
				-1.0411077737808228,
				-5.111709117889404
			],
			"type":"VEC3"
		},
		{
			"bufferView":1,
			"componentType":5126,
			"count":3611,
			"type":"VEC3"
		},
		{
			"bufferView":2,
			"componentType":5126,
			"count":3611,
			"type":"VEC2"
		},
		{
			"bufferView":3,
			"componentType":5123,
			"count":5904,
			"type":"SCALAR"
		},
		{
			"bufferView":4,
			"componentType":5126,
			"count":7361,
			"max":[
				0.06778253614902496,
				0.04649100825190544,
				0.04096278175711632
			],
			"min":[
				-0.07169974595308304,
				-2.066521847154945e-05,
				-0.033580198884010315
			],
			"type":"VEC3"
		},
		{
			"bufferView":5,
			"componentType":5126,
			"count":7361,
			"type":"VEC3"
		},
		{
			"bufferView":6,
			"componentType":5126,
			"count":7361,
			"type":"VEC2"
		},
		{
			"bufferView":7,
			"componentType":5123,
			"count":37494,
			"type":"SCALAR"
		},
		{
			"bufferView":8,
			"componentType":5126,
			"count":6741,
			"max":[
				0.29628369212150574,
				0.8556039333343506,
				0.2962835729122162
			],
			"min":[
				-0.29628369212150574,
				0,
				-0.2962838113307953
			],
			"type":"VEC3"
		},
		{
			"bufferView":9,
			"componentType":5126,
			"count":6741,
			"type":"VEC3"
		},
		{
			"bufferView":10,
			"componentType":5126,
			"count":6741,
			"type":"VEC2"
		},
		{
			"bufferView":11,
			"componentType":5123,
			"count":27648,
			"type":"SCALAR"
		}
	],
	"bufferViews":[
		{
			"buffer":0,
			"byteLength":43332,
			"byteOffset":0,
			"target":34962
		},
		{
			"buffer":0,
			"byteLength":43332,
			"byteOffset":43332,
			"target":34962
		},
		{
			"buffer":0,
			"byteLength":28888,
			"byteOffset":86664,
			"target":34962
		},
		{
			"buffer":0,
			"byteLength":11808,
			"byteOffset":115552,
			"target":34963
		},
		{
			"buffer":0,
			"byteLength":88332,
			"byteOffset":127360,
			"target":34962
		},
		{
			"buffer":0,
			"byteLength":88332,
			"byteOffset":215692,
			"target":34962
		},
		{
			"buffer":0,
			"byteLength":58888,
			"byteOffset":304024,
			"target":34962
		},
		{
			"buffer":0,
			"byteLength":74988,
			"byteOffset":362912,
			"target":34963
		},
		{
			"buffer":0,
			"byteLength":80892,
			"byteOffset":437900,
			"target":34962
		},
		{
			"buffer":0,
			"byteLength":80892,
			"byteOffset":518792,
			"target":34962
		},
		{
			"buffer":0,
			"byteLength":53928,
			"byteOffset":599684,
			"target":34962
		},
		{
			"buffer":0,
			"byteLength":55296,
			"byteOffset":653612,
			"target":34963
		}
	],
	"samplers":[
		{
			"magFilter":9729,
			"minFilter":9987
		}
	],
	"buffers":[
		{
			"byteLength":708908,
			"uri":"Objects.bin"
		}
	]
}
