{
	"asset":{
		"generator":"Khronos glTF Blender I/O v4.2.70",
		"version":"2.0"
	},
	"scene":0,
	"scenes":[
		{
			"name":"Scene",
			"nodes":[
				0
			]
		}
	],
	"nodes":[
		{
			"mesh":0,
			"name":"Ocean",
			"translation":[
				1.0467109680175781,
				-0.09306356310844421,
				1.4757583141326904
			]
		}
	],
	"materials":[
		{
			"alphaMode":"BLEND",
			"doubleSided":true,
			"name":"Material.002",
			"pbrMetallicRoughness":{
				"baseColorFactor":[
					1,
					1,
					1,
					0.7787878513336182
				],
				"baseColorTexture":{
					"index":0
				},
				"metallicFactor":0,
				"roughnessFactor":0.5
			}
		}
	],
	"meshes":[
		{
			"name":"Grid.001",
			"primitives":[
				{
					"attributes":{
						"POSITION":0,
						"NORMAL":1,
						"TEXCOORD_0":2
					},
					"indices":3,
					"material":0
				}
			]
		}
	],
	"textures":[
		{
			"sampler":0,
			"source":0
		}
	],
	"images":[
		{
			"mimeType":"image/jpeg",
			"name":"summer_background_47_a",
			"uri":"summer_background_47_a.jpg"
		}
	],
	"accessors":[
		{
			"bufferView":0,
			"componentType":5126,
			"count":10502,
			"max":[
				25.315622329711914,
				1.4109622240066528,
				25.103506088256836
			],
			"min":[
				-25.08388328552246,
				-2.494431972503662,
				-25.761701583862305
			],
			"type":"VEC3"
		},
		{
			"bufferView":1,
			"componentType":5126,
			"count":10502,
			"type":"VEC3"
		},
		{
			"bufferView":2,
			"componentType":5126,
			"count":10502,
			"type":"VEC2"
		},
		{
			"bufferView":3,
			"componentType":5123,
			"count":60000,
			"type":"SCALAR"
		}
	],
	"bufferViews":[
		{
			"buffer":0,
			"byteLength":126024,
			"byteOffset":0,
			"target":34962
		},
		{
			"buffer":0,
			"byteLength":126024,
			"byteOffset":126024,
			"target":34962
		},
		{
			"buffer":0,
			"byteLength":84016,
			"byteOffset":252048,
			"target":34962
		},
		{
			"buffer":0,
			"byteLength":120000,
			"byteOffset":336064,
			"target":34963
		}
	],
	"samplers":[
		{
			"magFilter":9729,
			"minFilter":9987
		}
	],
	"buffers":[
		{
			"byteLength":456064,
			"uri":"ground.bin"
		}
	]
}
