{
	"asset":{
		"generator":"Khronos glTF Blender I/O v4.2.70",
		"version":"2.0"
	},
	"extensionsUsed":[
		"KHR_texture_transform"
	],
	"extensionsRequired":[
		"KHR_texture_transform"
	],
	"scene":0,
	"scenes":[
		{
			"name":"Scene",
			"nodes":[
				0
			]
		}
	],
	"nodes":[
		{
			"mesh":0,
			"name":"Cylinder",
			"scale":[
				0.3558264672756195,
				0.3558264672756195,
				0.3558264672756195
			]
		}
	],
	"materials":[
		{
			"doubleSided":true,
			"name":"brown_planks_03",
			"normalTexture":{
				"extensions":{
					"KHR_texture_transform":{
						"offset":[
							0,
							-1
						],
						"scale":[
							2.3000001907348633,
							2
						]
					}
				},
				"index":0,
				"scale":1.2999999523162842
			},
			"pbrMetallicRoughness":{
				"baseColorTexture":{
					"extensions":{
						"KHR_texture_transform":{
							"offset":[
								0,
								-1
							],
							"scale":[
								2.3000001907348633,
								2
							]
						}
					},
					"index":1
				},
				"metallicFactor":0,
				"metallicRoughnessTexture":{
					"extensions":{
						"KHR_texture_transform":{
							"offset":[
								0,
								-1
							],
							"scale":[
								2.3000001907348633,
								2
							]
						}
					},
					"index":2
				}
			}
		},
		{
			"doubleSided":true,
			"name":"Metal",
			"pbrMetallicRoughness":{
				"baseColorFactor":[
					0.049984902143478394,
					0.049984902143478394,
					0.049984902143478394,
					1
				],
				"metallicFactor":0.7772727012634277,
				"roughnessFactor":0.35606059432029724
			}
		},
		{
			"doubleSided":true,
			"name":"red_laterite_soil_stones",
			"normalTexture":{
				"index":3
			},
			"pbrMetallicRoughness":{
				"baseColorTexture":{
					"index":4
				},
				"metallicFactor":0,
				"metallicRoughnessTexture":{
					"index":5
				}
			}
		}
	],
	"meshes":[
		{
			"name":"Cylinder",
			"primitives":[
				{
					"attributes":{
						"POSITION":0,
						"NORMAL":1,
						"TEXCOORD_0":2
					},
					"indices":3,
					"material":0
				},
				{
					"attributes":{
						"POSITION":4,
						"NORMAL":5,
						"TEXCOORD_0":6
					},
					"indices":7,
					"material":1
				},
				{
					"attributes":{
						"POSITION":8,
						"NORMAL":9,
						"TEXCOORD_0":10
					},
					"indices":11,
					"material":2
				}
			]
		}
	],
	"textures":[
		{
			"sampler":0,
			"source":0
		},
		{
			"sampler":0,
			"source":1
		},
		{
			"sampler":0,
			"source":2
		},
		{
			"sampler":0,
			"source":3
		},
		{
			"sampler":0,
			"source":4
		},
		{
			"sampler":0,
			"source":5
		}
	],
	"images":[
		{
			"mimeType":"image/png",
			"name":"brown_planks_03_Nor_4k",
			"uri":"brown_planks_03_Nor_4k.png"
		},
		{
			"mimeType":"image/jpeg",
			"name":"brown_planks_03_diff_1k",
			"uri":"brown_planks_03_diff_1k.jpg"
		},
		{
			"mimeType":"image/png",
			"name":"brown_planks_03_rough_1k",
			"uri":"brown_planks_03_rough_1k.png"
		},
		{
			"mimeType":"image/png",
			"name":"red_laterite_soil_stones_nor_gl",
			"uri":"red_laterite_soil_stones_nor_gl.png"
		},
		{
			"mimeType":"image/jpeg",
			"name":"red_laterite_soil_stones_diff_1k",
			"uri":"red_laterite_soil_stones_diff_1k.jpg"
		},
		{
			"mimeType":"image/png",
			"name":"red_laterite_soil_stones_rough",
			"uri":"red_laterite_soil_stones_rough.png"
		}
	],
	"accessors":[
		{
			"bufferView":0,
			"componentType":5126,
			"count":519,
			"max":[
				0.8285261988639832,
				0.6024912595748901,
				0.8148849606513977
			],
			"min":[
				-0.8285261988639832,
				-0.6018359661102295,
				-0.8330899477005005
			],
			"type":"VEC3"
		},
		{
			"bufferView":1,
			"componentType":5126,
			"count":519,
			"type":"VEC3"
		},
		{
			"bufferView":2,
			"componentType":5126,
			"count":519,
			"type":"VEC2"
		},
		{
			"bufferView":3,
			"componentType":5123,
			"count":819,
			"type":"SCALAR"
		},
		{
			"bufferView":4,
			"componentType":5126,
			"count":748,
			"max":[
				0.8252775073051453,
				0.3800183832645416,
				0.8116897344589233
			],
			"min":[
				-0.8252775073051453,
				-0.376331090927124,
				-0.82982337474823
			],
			"type":"VEC3"
		},
		{
			"bufferView":5,
			"componentType":5126,
			"count":748,
			"type":"VEC3"
		},
		{
			"bufferView":6,
			"componentType":5126,
			"count":748,
			"type":"VEC2"
		},
		{
			"bufferView":7,
			"componentType":5123,
			"count":1620,
			"type":"SCALAR"
		},
		{
			"bufferView":8,
			"componentType":5126,
			"count":15,
			"max":[
				0.5698533058166504,
				0.4827537536621094,
				0.5604709982872009
			],
			"min":[
				-0.5698533058166504,
				0.4827537536621094,
				-0.572992205619812
			],
			"type":"VEC3"
		},
		{
			"bufferView":9,
			"componentType":5126,
			"count":15,
			"type":"VEC3"
		},
		{
			"bufferView":10,
			"componentType":5126,
			"count":15,
			"type":"VEC2"
		},
		{
			"bufferView":11,
			"componentType":5123,
			"count":39,
			"type":"SCALAR"
		}
	],
	"bufferViews":[
		{
			"buffer":0,
			"byteLength":6228,
			"byteOffset":0,
			"target":34962
		},
		{
			"buffer":0,
			"byteLength":6228,
			"byteOffset":6228,
			"target":34962
		},
		{
			"buffer":0,
			"byteLength":4152,
			"byteOffset":12456,
			"target":34962
		},
		{
			"buffer":0,
			"byteLength":1638,
			"byteOffset":16608,
			"target":34963
		},
		{
			"buffer":0,
			"byteLength":8976,
			"byteOffset":18248,
			"target":34962
		},
		{
			"buffer":0,
			"byteLength":8976,
			"byteOffset":27224,
			"target":34962
		},
		{
			"buffer":0,
			"byteLength":5984,
			"byteOffset":36200,
			"target":34962
		},
		{
			"buffer":0,
			"byteLength":3240,
			"byteOffset":42184,
			"target":34963
		},
		{
			"buffer":0,
			"byteLength":180,
			"byteOffset":45424,
			"target":34962
		},
		{
			"buffer":0,
			"byteLength":180,
			"byteOffset":45604,
			"target":34962
		},
		{
			"buffer":0,
			"byteLength":120,
			"byteOffset":45784,
			"target":34962
		},
		{
			"buffer":0,
			"byteLength":78,
			"byteOffset":45904,
			"target":34963
		}
	],
	"samplers":[
		{
			"magFilter":9729,
			"minFilter":9987
		}
	],
	"buffers":[
		{
			"byteLength":45984,
			"uri":"barrel.bin"
		}
	]
}
