{
	"asset":{
		"generator":"Khronos glTF Blender I/O v4.2.70",
		"version":"2.0"
	},
	"extensionsUsed":[
		"KHR_materials_specular",
		"KHR_materials_ior"
	],
	"scene":0,
	"scenes":[
		{
			"name":"Scene",
			"nodes":[
				0
			]
		}
	],
	"nodes":[
		{
			"mesh":0,
			"name":"slava_shoe",
			"rotation":[
				-0.010639652609825134,
				-0.8355824947357178,
				-0.018892157822847366,
				0.5489369630813599
			],
			"scale":[
				0.20739084482192993,
				0.20739084482192993,
				0.20739084482192993
			],
			"translation":[
				1.588009238243103,
				-1.5047439336776733,
				2.5552566051483154
			]
		}
	],
	"materials":[
		{
			"doubleSided":true,
			"extensions":{
				"KHR_materials_specular":{
					"specularFactor":0
				},
				"KHR_materials_ior":{
					"ior":1
				}
			},
			"name":"slava_shoe.001",
			"pbrMetallicRoughness":{
				"baseColorTexture":{
					"index":0
				},
				"metallicFactor":0
			}
		}
	],
	"meshes":[
		{
			"name":"slava_shoe.001",
			"primitives":[
				{
					"attributes":{
						"POSITION":0,
						"NORMAL":1,
						"TEXCOORD_0":2
					},
					"indices":3,
					"material":0
				}
			]
		}
	],
	"textures":[
		{
			"sampler":0,
			"source":0
		}
	],
	"images":[
		{
			"mimeType":"image/jpeg",
			"name":"slava_shoe",
			"uri":"slava_shoe.jpg"
		}
	],
	"accessors":[
		{
			"bufferView":0,
			"componentType":5126,
			"count":352420,
			"max":[
				10.318582534790039,
				24.50040054321289,
				10.181968688964844
			],
			"min":[
				-9.25623893737793,
				8.33699893951416,
				-11.028221130371094
			],
			"type":"VEC3"
		},
		{
			"bufferView":1,
			"componentType":5126,
			"count":352420,
			"type":"VEC3"
		},
		{
			"bufferView":2,
			"componentType":5126,
			"count":352420,
			"type":"VEC2"
		},
		{
			"bufferView":3,
			"componentType":5125,
			"count":645270,
			"type":"SCALAR"
		}
	],
	"bufferViews":[
		{
			"buffer":0,
			"byteLength":4229040,
			"byteOffset":0,
			"target":34962
		},
		{
			"buffer":0,
			"byteLength":4229040,
			"byteOffset":4229040,
			"target":34962
		},
		{
			"buffer":0,
			"byteLength":2819360,
			"byteOffset":8458080,
			"target":34962
		},
		{
			"buffer":0,
			"byteLength":2581080,
			"byteOffset":11277440,
			"target":34963
		}
	],
	"samplers":[
		{
			"magFilter":9729,
			"minFilter":9987
		}
	],
	"buffers":[
		{
			"byteLength":13858520,
			"uri":"shoe.bin"
		}
	]
}
